<svg xml:space="preserve" style="max-height: 500px" viewBox="2.63373820754717 71.96648 736.5687853773585 309.80692" y="0px" x="0px" xmlns:xlink="http://www.w3.org/1999/xlink" xmlns="http://www.w3.org/2000/svg" id="Layer_1" version="1.1" width="736.5687853773585" height="309.80692">
<style type="text/css">
	.st0{fill:#064857;}
</style>
<g>
	<g>
		<g>
			<path d="M342.83,219.29v40.06H325.5V222c0-7.09-2.7-10.46-7.43-10.46c-4.95,0-8.78,3.71-10.35,9.45v38.37h-17.33V222&#10;&#9;&#9;&#9;&#9;c0-7.65-2.7-10.46-7.2-10.46c-4.95,0-8.89,3.71-10.58,9.23v38.6h-17.33v-62.12h17.33v6.98c3.6-5.06,9.12-8.33,16.32-8.33&#10;&#9;&#9;&#9;&#9;c8.1,0,13.5,3.49,16.43,10.01c4.05-6.08,10.69-10.01,18.68-10.01C336.52,195.89,342.83,204.33,342.83,219.29z" class="st0"/>
			<path d="M400.13,221.77v37.58h-17.22v-7.65c-3.15,5.51-9.12,9-16.99,9c-10.58,0-18.68-7.54-18.68-19.8&#10;&#9;&#9;&#9;&#9;c0-11.48,6.64-18.68,21.72-18.68c4.5,0,10.01,0.34,13.95,0.68v-1.35c0-7.09-3.94-11.14-11.93-11.14&#10;&#9;&#9;&#9;&#9;c-5.63,0-11.48,1.35-16.09,3.26l-1.69-14.4c5.74-2.03,12.49-3.38,19.92-3.38C392.14,195.89,400.13,205.68,400.13,221.77z&#10;&#9;&#9;&#9;&#9; M382.91,233.14v-0.22c-2.93-0.34-5.74-0.56-9.45-0.56c-6.86,0-9.68,2.03-9.68,6.98c0,4.05,3.15,7.2,8.1,7.2&#10;&#9;&#9;&#9;&#9;C379.2,246.53,382.91,242.14,382.91,233.14z" class="st0"/>
			<path d="M461.85,219.63v39.72h-17.33v-37.25c0-7.2-3.15-10.46-8.89-10.46c-5.06,0-9.34,3.71-11.36,9.34v38.37h-17.33&#10;&#9;&#9;&#9;&#9;v-62.12h17.33v7.88c3.6-5.4,9.45-9.23,17.22-9.23C454.2,195.89,461.85,204.22,461.85,219.63z" class="st0"/>
			<polygon points="468.22,190.28 468.22,175.88 486.22,174.55 486.22,188.95" class="st0"/>
			<rect height="62.12" width="17.44" class="st0" y="197.24" x="468.56"/>
			<path d="M524.99,243.49c-3.15,1.24-6.08,1.91-8.55,1.91c-4.05,0-6.19-2.7-6.19-7.31v-26.33h16.2v-14.52h-16.2v-14.85&#10;&#9;&#9;&#9;&#9;l-17.22,1.77v56.07c0,13.62,6.98,20.48,19.58,20.48c4.73,0,10.35-1.13,15.42-3.49L524.99,243.49z" class="st0"/>
			<polygon points="533,190.27 533,175.87 551.01,174.21 551.01,188.62" class="st0"/>
			<rect height="62.12" width="17.44" class="st0" y="197.24" x="533.34"/>
			<path d="M555.34,228.3c0-20.03,13.05-32.41,30.04-32.41c6.75,0,12.94,1.69,19.02,5.74l-5.74,13.62&#10;&#9;&#9;&#9;&#9;c-4.28-2.93-7.65-4.16-11.93-4.16c-8.21,0-13.84,5.96-13.84,17.1c0,11.25,5.63,17.33,13.84,17.33c4.16,0,8.1-1.35,12.15-3.94&#10;&#9;&#9;&#9;&#9;l5.51,13.39c-6.53,4.16-12.27,5.63-19.02,5.63C567.83,260.59,555.34,248.33,555.34,228.3z" class="st0"/>
			<path d="M608.68,256.2l2.48-14.74c6.3,3.15,13.62,4.84,20.14,4.84c4.28,0,7.88-1.13,7.76-4.95&#10;&#9;&#9;&#9;&#9;c0-3.26-2.81-5.06-10.58-7.43c-13.5-3.38-19.13-8.55-19.13-18.68c0.11-13.05,10.91-19.36,23.97-19.36&#10;&#9;&#9;&#9;&#9;c6.98,0,13.84,1.69,19.69,3.83l-2.25,14.52c-5.18-2.48-11.81-4.05-17.67-4.05c-4.5,0-6.86,1.35-6.86,4.39s2.48,4.95,9.79,7.09&#10;&#9;&#9;&#9;&#9;c14.29,4.16,20.03,9.79,20.03,19.58c-0.11,12.83-10.69,19.35-24.87,19.35C622.53,260.59,615.44,259.13,608.68,256.2z" class="st0"/>
		</g>
	</g>
	<path d="M233.85,142.87H96.06c-4.22,0-7.65,3.42-7.65,7.65v137.79c0,4.22,3.42,7.65,7.65,7.65h137.79&#10;&#9;&#9;c4.22,0,7.65-3.42,7.65-7.65V150.52C241.49,146.29,238.07,142.87,233.85,142.87z M166.57,259.44h-18.62v-31.88H121.1v31.88h-18.62&#10;&#9;&#9;v-79.97h18.62v32.22h26.85v-32.22h18.62V259.44z M227.43,258.71h-17.59v-8c-3.66,5.6-9.6,9.37-17.48,9.37&#10;&#9;&#9;c-12.8,0-20.68-8.45-20.68-24.11v-40.33h17.71v37.82c0,7.31,3.08,10.74,8.91,10.74c5.14,0,9.48-3.77,11.54-9.48v-39.07h17.59&#10;&#9;&#9;V258.71z" class="st0"/>
</g>
</svg>